<svg width="24" height="24" viewBox="0 0 24 24" fill="none" xmlns="http://www.w3.org/2000/svg">
<path d="M21.4072 19.7536L16.9968 15.3432C18.0586 13.9296 18.6318 12.209 18.6299 10.441C18.6299 5.92504 14.9558 2.25098 10.4399 2.25098C5.92394 2.25098 2.24988 5.92504 2.24988 10.441C2.24988 14.9569 5.92394 18.631 10.4399 18.631C12.2079 18.6329 13.9285 18.0597 15.3421 16.9979L19.7525 21.4083C19.9758 21.6079 20.267 21.7144 20.5663 21.706C20.8657 21.6977 21.1504 21.575 21.3622 21.3633C21.5739 21.1515 21.6966 20.8668 21.705 20.5674C21.7133 20.2681 21.6068 19.9769 21.4072 19.7536ZM4.58988 10.441C4.58988 9.28396 4.93297 8.15292 5.57578 7.19089C6.21859 6.22886 7.13223 5.47905 8.20118 5.03628C9.27013 4.59351 10.4464 4.47766 11.5812 4.70338C12.7159 4.92911 13.7583 5.48626 14.5765 6.3044C15.3946 7.12254 15.9517 8.16491 16.1775 9.2997C16.4032 10.4345 16.2873 11.6107 15.8446 12.6797C15.4018 13.7486 14.652 14.6623 13.69 15.3051C12.7279 15.9479 11.5969 16.291 10.4399 16.291C8.88893 16.2891 7.40204 15.6722 6.30536 14.5755C5.20867 13.4788 4.59174 11.9919 4.58988 10.441Z" fill="#757575"/>
</svg>
