<svg width="40" height="40" viewBox="0 0 40 40" fill="none" xmlns="http://www.w3.org/2000/svg">
<g opacity="0.6">
<circle cx="20" cy="20" r="20" transform="rotate(-90 20 20)" fill="url(#paint0_linear_230_5050)"/>
<path d="M20.7071 12.2929C20.3166 11.9024 19.6834 11.9024 19.2929 12.2929L12.9289 18.6569C12.5384 19.0474 12.5384 19.6805 12.9289 20.0711C13.3195 20.4616 13.9526 20.4616 14.3431 20.0711L20 14.4142L25.6569 20.0711C26.0474 20.4616 26.6805 20.4616 27.0711 20.0711C27.4616 19.6805 27.4616 19.0474 27.0711 18.6569L20.7071 12.2929ZM20 27H21V13H20H19V27H20Z" fill="white"/>
</g>
<defs>
<linearGradient id="paint0_linear_230_5050" x1="46.6667" y1="18.6667" x2="-7.33334" y2="18" gradientUnits="userSpaceOnUse">
<stop stop-color="#1C7C7E"/>
<stop offset="1" stop-color="#132F2B" stop-opacity="0.8"/>
</linearGradient>
</defs>
</svg>
