<svg width="34" height="20" viewBox="0 0 34 20" fill="none" xmlns="http://www.w3.org/2000/svg">
<path d="M17.9 3C17.9 4.10457 15.6838 5 12.95 5C10.2162 5 8 4.10457 8 3M17.9 3C17.9 1.89543 15.6838 1 12.95 1C10.2162 1 8 1.89543 8 3M17.9 3V7.45715C16.8006 7.82398 16.1 8.37893 16.1 9M8 3V15C8 16.1046 10.2162 17 12.95 17C14.1467 17 15.2442 16.8284 16.1 16.5429V9M8 7C8 8.10457 10.2162 9 12.95 9C14.1467 9 15.2442 8.82843 16.1 8.54285M8 11C8 12.1046 10.2162 13 12.95 13C14.1467 13 15.2442 12.8284 16.1 12.5429M26 9C26 10.1046 23.7838 11 21.05 11C18.3162 11 16.1 10.1046 16.1 9M26 9C26 7.89543 23.7838 7 21.05 7C18.3162 7 16.1 7.89543 16.1 9M26 9V17C26 18.1046 23.7838 19 21.05 19C18.3162 19 16.1 18.1046 16.1 17V9M26 13C26 14.1046 23.7838 15 21.05 15C18.3162 15 16.1 14.1046 16.1 13" stroke="#D4AF37" stroke-width="2" stroke-linecap="round" stroke-linejoin="round"/>
</svg>
