<svg width="22" height="22" viewBox="0 0 22 22" fill="none" xmlns="http://www.w3.org/2000/svg">
<path d="M20.1741 5.81189C20.7028 5.28332 20.9998 4.56636 20.9999 3.81875C21 3.07113 20.7031 2.3541 20.1746 1.82539C19.646 1.29668 18.929 0.999606 18.1814 0.999512C17.4338 0.999418 16.7168 1.29632 16.1881 1.82489L2.84206 15.1739C2.60988 15.4054 2.43817 15.6904 2.34206 16.0039L1.02106 20.3559C0.995212 20.4424 0.99326 20.5342 1.01541 20.6217C1.03756 20.7092 1.08298 20.7891 1.14685 20.8529C1.21073 20.9167 1.29068 20.962 1.37821 20.984C1.46575 21.006 1.55762 21.0039 1.64406 20.9779L5.99706 19.6579C6.31023 19.5626 6.59523 19.392 6.82706 19.1609L20.1741 5.81189Z" stroke="white" stroke-linecap="round" stroke-linejoin="round"/>
</svg>
